<?xml version="1.0" encoding="UTF-8" standalone="no"?>
<!-- Created with Inkscape (http://www.inkscape.org/) -->

<svg
   width="268.409mm"
   height="81.68mm"
   viewBox="0 0 268.409 81.68"
   version="1.1"
   id="svg5"
   xml:space="preserve"
   inkscape:version="1.2.2 (732a01da63, 2022-12-09)"
   sodipodi:docname="OnBoardDecal.svg"
   xmlns:inkscape="http://www.inkscape.org/namespaces/inkscape"
   xmlns:sodipodi="http://sodipodi.sourceforge.net/DTD/sodipodi-0.dtd"
   xmlns="http://www.w3.org/2000/svg"
   xmlns:svg="http://www.w3.org/2000/svg"><sodipodi:namedview
     id="namedview7"
     pagecolor="#ffffff"
     bordercolor="#000000"
     borderopacity="0.25"
     inkscape:showpageshadow="2"
     inkscape:pageopacity="0.0"
     inkscape:pagecheckerboard="0"
     inkscape:deskcolor="#d1d1d1"
     inkscape:document-units="mm"
     showgrid="false"
     inkscape:zoom="0.92764814"
     inkscape:cx="420.95703"
     inkscape:cy="25.332881"
     inkscape:window-width="1920"
     inkscape:window-height="991"
     inkscape:window-x="-9"
     inkscape:window-y="-9"
     inkscape:window-maximized="1"
     inkscape:current-layer="layer1" /><defs
     id="defs2" /><g
     inkscape:label="Layer 1"
     inkscape:groupmode="layer"
     id="layer1"
     transform="translate(-7.6664672,-7.1427156)"><g
       id="g18955"
       transform="translate(-8.4666659,12.700001)"><path
         id="path16569"
         style="fill:#a8a8a8;fill-opacity:1;stroke:#000000;stroke-width:0;stroke-dasharray:none;stroke-opacity:1"
         d="M 259.19655,-3.4406169 42.033058,-3.3279622 c 0,0 -19.848421,19.0712172 -21.966066,21.1888622 -2.117644,2.117644 -1.714107,4.2354 -1.714107,4.2354 0,0 7.1e-5,45.78142 -0.100769,49.109147 -0.100841,3.327727 3.125907,3.125908 3.125907,3.125908 l 58.588155,-0.100769 c 0,0 196.556072,0.08898 199.984652,-0.01186 3.42858,-0.100841 2.69238,-3.096969 2.69238,-3.096969 0,0 -0.0171,-47.970183 -0.0171,-50.188668 0,-2.218484 -1.80299,-3.286104 -1.80299,-3.286104 z M 31.270443,36.665462 l 15.953031,0.01395 c 0.664799,5.79e-4 1.199472,0.536161 1.198893,1.20096 l -0.01395,15.953032 c -5.79e-4,0.664799 -0.536161,1.199472 -1.200961,1.198893 l -15.953031,-0.01395 c -0.664799,-5.79e-4 -1.199472,-0.536161 -1.198893,-1.20096 l 0.01395,-15.953032 c 5.79e-4,-0.664799 0.536162,-1.199472 1.200961,-1.198893 z m 22.225,0.01964 15.953031,0.01344 c 0.664799,5.79e-4 1.199472,0.536678 1.198893,1.201477 l -0.01395,15.952515 c -5.79e-4,0.664799 -0.536161,1.199472 -1.200961,1.198893 l -15.953031,-0.01344 c -0.664799,-5.79e-4 -1.199472,-0.536678 -1.198893,-1.201477 l 0.01395,-15.952514 c 5.79e-4,-0.6648 0.536162,-1.199473 1.200961,-1.198894 z m 22.225,0.01912 15.953031,0.01395 c 0.664799,5.79e-4 1.199472,0.536161 1.198893,1.20096 l -0.01395,15.953032 c -5.79e-4,0.664799 -0.536161,1.199472 -1.200961,1.198893 l -15.953031,-0.01395 c -0.664799,-5.79e-4 -1.199472,-0.536161 -1.198893,-1.20096 l 0.01395,-15.953031 c 5.79e-4,-0.664799 0.536162,-1.199473 1.200961,-1.198894 z m 22.225,0.01912 15.953027,0.01395 c 0.6648,5.8e-4 1.19948,0.536162 1.1989,1.200961 l -0.014,15.953031 c -5.7e-4,0.664799 -0.53616,1.199472 -1.20096,1.198893 l -15.953027,-0.01344 c -0.664799,-5.8e-4 -1.199472,-0.536678 -1.198893,-1.201478 l 0.01395,-15.952514 c 5.79e-4,-0.664799 0.536162,-1.199989 1.200961,-1.19941 z m 22.367627,0.01964 15.95303,0.01395 c 0.6648,5.79e-4 1.19947,0.536161 1.19889,1.20096 l -0.0139,15.953031 c -5.8e-4,0.664799 -0.53616,1.199473 -1.20096,1.198893 l -15.95303,-0.01395 c -0.6648,-5.79e-4 -1.19947,-0.536161 -1.19889,-1.20096 l 0.014,-15.953032 c 5.8e-4,-0.664799 0.53616,-1.199472 1.20096,-1.198893 z m 22.225,0.01964 15.95303,0.01344 c 0.6648,5.79e-4 1.19947,0.536678 1.19889,1.201477 l -0.0139,15.952515 c -5.8e-4,0.664799 -0.53616,1.199989 -1.20096,1.199409 l -15.95303,-0.01395 c -0.6648,-5.79e-4 -1.19947,-0.536161 -1.19889,-1.20096 l 0.0139,-15.953032 c 5.8e-4,-0.664799 0.53616,-1.199472 1.20096,-1.198893 z m 22.225,0.01912 15.95303,0.01395 c 0.6648,5.79e-4 1.19947,0.536161 1.19889,1.20096 l -0.0139,15.953032 c -5.8e-4,0.664799 -0.53616,1.199472 -1.20096,1.198893 l -15.95303,-0.01395 c -0.6648,-5.79e-4 -1.19947,-0.536161 -1.19889,-1.20096 l 0.0139,-15.953032 c 5.8e-4,-0.664799 0.53616,-1.199472 1.20096,-1.198893 z m 22.225,0.01964 15.95303,0.01344 c 0.6648,5.79e-4 1.19947,0.536678 1.19889,1.201477 l -0.014,15.952515 c -5.8e-4,0.664799 -0.53616,1.199989 -1.20096,1.19941 L 186.972,55.154274 c -0.6648,-5.79e-4 -1.19947,-0.536678 -1.19889,-1.201477 l 0.014,-15.952515 c 5.8e-4,-0.664799 0.53616,-1.199472 1.20096,-1.198893 z m 22.225,0.01912 15.95303,0.01395 c 0.6648,5.79e-4 1.19947,0.536161 1.19889,1.20096 l -0.0139,15.953032 c -5.8e-4,0.664799 -0.53616,1.199472 -1.20096,1.198893 l -15.95303,-0.01395 c -0.6648,-5.79e-4 -1.19947,-0.536161 -1.19889,-1.20096 l 0.0139,-15.953031 c 5.8e-4,-0.664799 0.53616,-1.199473 1.20096,-1.198894 z m 22.225,0.01912 15.95303,0.01395 c 0.6648,5.8e-4 1.19947,0.536678 1.19889,1.201478 l -0.0139,15.952514 c -5.8e-4,0.664799 -0.53616,1.199472 -1.20096,1.198893 l -15.95303,-0.01344 c -0.6648,-5.8e-4 -1.19947,-0.536678 -1.19889,-1.201478 l 0.0139,-15.952514 c 5.8e-4,-0.664799 0.53616,-1.199989 1.20096,-1.19941 z m 22.225,0.01964 15.95303,0.01395 c 0.6648,5.8e-4 1.19947,0.536162 1.19889,1.200961 l -0.014,15.953031 c -5.8e-4,0.664799 -0.53616,1.199473 -1.20096,1.198893 L 253.647,55.212147 c -0.6648,-5.79e-4 -1.19947,-0.536161 -1.19889,-1.20096 l 0.0139,-15.953032 c 5.8e-4,-0.664799 0.53616,-1.199472 1.20096,-1.198893 z"
         sodipodi:nodetypes="ccscsccscscccccccccccccccccccccccccccccccccccccscccssccccccccssccssscccssccsscccccccccscccssccssccsssccsssccsccscsssc" /><path
         id="rect12614"
         style="fill:#000000;fill-opacity:1;stroke:#000000;stroke-width:0;stroke-dasharray:none"
         d="m 269.45125,18.575094 -15.48484,0.0026 c -1.56471,3.16e-4 -2.82491,1.249682 -2.82463,2.800863 l 0.002,13.514937 -1.21284,5.17e-4 -0.002,-13.364042 c -2e-4,-1.551171 -1.26046,-2.799599 -2.82515,-2.799312 l -15.48536,0.0026 c -1.5647,3.16e-4 -2.82441,1.249175 -2.82412,2.800346 l 0.002,13.364042 -0.99529,5.17e-4 -0.002,-13.37231 c -2e-4,-1.551184 -1.25993,-2.800115 -2.82464,-2.799829 l -15.48587,0.0026 c -1.56469,3.16e-4 -2.8239,1.249681 -2.82361,2.800862 l 0.002,13.372311 -0.82269,5.16e-4 -0.002,-13.514937 c -1.9e-4,-1.55118 -1.25996,-2.800117 -2.82464,-2.799829 l -15.48587,0.0026 c -1.5647,3.16e-4 -2.82388,1.249682 -2.8236,2.800862 l 0.002,13.514938 -1.21336,5.16e-4 -0.002,-13.364042 c -2e-4,-1.551171 -1.25993,-2.799601 -2.82463,-2.799312 l -15.48588,0.0026 c -1.5647,3.16e-4 -2.82388,1.249172 -2.8236,2.800346 l 0.002,13.364042 -0.99581,5.17e-4 -0.002,-13.372311 c -2.1e-4,-1.551181 -1.25993,-2.800116 -2.82464,-2.799829 l -15.48587,0.0026 c -1.56471,3.16e-4 -2.82389,1.249679 -2.8236,2.800863 l 0.002,13.37231 -1.21336,5.17e-4 -0.003,-13.221415 c -2e-4,-1.551194 -1.25993,-2.799601 -2.82463,-2.799313 l -15.48588,0.0026 c -1.5647,3.16e-4 -2.82389,1.249151 -2.8236,2.800346 l 0.003,13.221415 -1.03715,5.17e-4 -0.002,-13.514938 c -1.9e-4,-1.551181 -1.25995,-2.800115 -2.82464,-2.799829 l -15.485356,0.0026 c -1.564696,3.16e-4 -2.823887,1.249678 -2.8236,2.800863 l 0.0021,13.514937 -1.213363,5.17e-4 -0.0026,-13.364042 c -2.98e-4,-1.551175 -1.259937,-2.7996 -2.824634,-2.799313 l -15.48536,0.0026 c -1.564696,3.16e-4 -2.824402,1.249175 -2.824117,2.800346 l 0.0026,13.364042 -0.995805,5.17e-4 -0.0021,-13.37231 c -2.97e-4,-1.551184 -1.259936,-2.800116 -2.824634,-2.799829 l -15.485876,0.0031 c -1.564696,3.17e-4 -2.823884,1.249679 -2.8236,2.800863 l 0.0021,13.371793 -1.213363,5.17e-4 -0.0021,-13.221415 c -2.86e-4,-1.551337 -1.260442,-2.799745 -2.82514,-2.799458 l -15.485359,0.0031 c -1.564697,3.16e-4 -2.823886,1.249155 -2.823601,2.800346 l 0.0078,41.693579 c 2.97e-4,1.551197 1.259937,2.800116 2.824634,2.799829 l 15.485359,-0.0026 c 1.564698,-3.16e-4 2.823886,-1.249668 2.823601,-2.800862 l -10e-4,-5.979997 1.213879,-5.17e-4 0.001,5.829102 c 2.97e-4,1.551194 1.259938,2.7996 2.824634,2.799312 l 15.48536,-0.0026 c 1.564695,-3.16e-4 2.824403,-1.249151 2.824117,-2.800345 l -0.001,-5.829102 0.995288,-5.17e-4 0.001,5.83737 c 2.97e-4,1.551194 1.259937,2.800116 2.824633,2.799829 l 15.485877,-0.0026 c 1.564695,-3.16e-4 2.823886,-1.249668 2.8236,-2.800862 l -10e-4,-5.83737 1.213362,-5.17e-4 0.001,5.686475 c 2.98e-4,1.551193 1.260456,2.799601 2.82515,2.799312 l 15.485364,-0.0026 c 1.5647,-3.16e-4 2.82389,-1.249149 2.8236,-2.800346 l -10e-4,-5.686474 1.03766,-5.17e-4 0.001,5.979997 c 1.9e-4,1.551193 1.25994,2.800116 2.82464,2.799829 l 15.48536,-0.0026 c 1.56466,-3.16e-4 2.82439,-1.249667 2.82411,-2.800863 l -0.001,-5.979996 1.21336,-5.17e-4 0.001,5.829101 c 2e-4,1.551197 1.25992,2.799601 2.82463,2.799313 l 15.48588,-0.0026 c 1.56467,-3.17e-4 2.82389,-1.249149 2.8236,-2.800346 l -0.001,-5.829101 0.99529,-5.17e-4 10e-4,5.83737 c 2e-4,1.551194 1.26048,2.800117 2.82515,2.799829 l 15.48536,-0.0026 c 1.56471,-3.16e-4 2.82388,-1.249667 2.8236,-2.800863 l -0.001,-5.83737 1.21388,-5.16e-4 0.001,5.686474 c 2e-4,1.551198 1.25994,2.799601 2.82464,2.799313 l 15.48536,-0.0026 c 1.56469,-3.17e-4 2.8244,-1.249152 2.82411,-2.800346 l -0.001,-5.686475 0.82217,-5.16e-4 0.001,5.829101 c 2e-4,1.551197 1.25993,2.799599 2.82463,2.799312 l 15.48588,-0.0026 c 1.56468,-3.17e-4 2.82389,-1.249152 2.8236,-2.800346 l -0.001,-5.829102 0.99581,-5.17e-4 10e-4,5.83737 c 2e-4,1.551197 1.26045,2.800118 2.82515,2.799829 l 15.48536,-0.0026 c 1.56469,-3.16e-4 2.82441,-1.249668 2.82412,-2.800862 l -0.001,-5.83737 1.21284,-5.17e-4 0.001,5.686475 c 2e-4,1.551195 1.26045,2.7996 2.82516,2.799312 l 15.48536,-0.0026 c 1.56467,-3.17e-4 2.82389,-1.249151 2.8236,-2.800345 l -0.008,-41.694096 c -1.9e-4,-1.551184 -1.25993,-2.800116 -2.82463,-2.799829 z m -68.06509,12.68243 0.003,2.548164 c 1.2e-4,0.136221 -0.0461,0.252993 -0.1385,0.350367 -0.0923,0.0946 -0.20691,0.141992 -0.34416,0.14211 l -3.31504,0.0031 c -0.14005,1.24e-4 -0.25631,-0.0458 -0.34882,-0.137459 -0.0897,-0.09445 -0.13474,-0.21272 -0.13487,-0.3545 l -0.002,-2.547648 0.8692,-0.001 0.003,2.214335 c 1.5e-4,0.202941 0.10645,0.304556 0.31936,0.304374 l 1.89911,-0.0021 c 0.0924,-8e-5 0.16809,-0.02805 0.22686,-0.08371 0.0588,-0.05565 0.088,-0.129428 0.0879,-0.221176 l -0.002,-2.214335 z m -4.89428,0.0041 5.2e-4,0.55087 -1.23093,10e-4 c -0.19047,1.6e-4 -0.28591,0.0779 -0.28577,0.233577 l 0.002,2.256194 -0.84439,5.16e-4 -0.002,-2.255676 c -1.4e-4,-0.155681 -0.0886,-0.233727 -0.2651,-0.233577 l -1.2392,0.001 -5.1e-4,-0.550871 z m -4.68498,0.0052 c 0.32771,-4.83e-4 0.48891,0.208073 0.48369,0.625285 l -0.004,0.108521 -0.86144,5.16e-4 c -6e-5,-0.06113 -0.0268,-0.11825 -0.0801,-0.171049 -0.0533,-0.05554 -0.11045,-0.08324 -0.17208,-0.0832 l -1.56735,0.0052 c -0.14845,1.28e-4 -0.242,0.04891 -0.28112,0.146244 -0.0224,0.05561 -0.0338,0.169733 -0.0336,0.342098 8e-5,0.09174 0.0294,0.165106 0.0884,0.220659 0.0589,0.05555 0.13497,0.08329 0.22737,0.0832 l 2.23501,-0.0021 c 0.13724,-1.18e-4 0.25216,0.04715 0.34468,0.141593 0.0925,0.09444 0.13889,0.210849 0.13901,0.34985 l 0.001,0.779797 c 1.2e-4,0.141781 -0.0462,0.259906 -0.1385,0.3545 -0.0896,0.09181 -0.20546,0.137853 -0.3483,0.137976 l -2.90318,0.0026 c -0.32771,4.84e-4 -0.48892,-0.208077 -0.48369,-0.625285 v -0.108003 l 0.86093,-10e-4 c 6e-5,0.06113 0.0269,0.119598 0.0801,0.175183 0.0533,0.05274 0.11097,0.0791 0.1726,0.07906 l 1.56683,-0.0052 c 0.14845,-1.28e-4 0.24384,-0.04891 0.28577,-0.146244 0.0224,-0.05561 0.0332,-0.169207 0.0331,-0.341581 -8e-5,-0.09174 -0.0295,-0.165622 -0.0884,-0.221175 -0.0589,-0.05835 -0.13578,-0.08742 -0.23099,-0.08733 l -2.23087,0.0021 c -0.14005,1.23e-4 -0.25681,-0.04715 -0.34933,-0.141594 -0.0897,-0.09722 -0.13423,-0.216339 -0.13436,-0.358117 l -0.001,-0.767395 c -1.3e-4,-0.141774 0.0443,-0.258545 0.13384,-0.350367 0.0896,-0.0946 0.20597,-0.141987 0.34882,-0.14211 z m -33.53491,0.0646 c 0.13725,-1.18e-4 0.25217,0.04715 0.34468,0.141593 0.0925,0.09445 0.13889,0.211366 0.13901,0.350367 l 0.002,2.055688 c 1.3e-4,0.136214 -0.0456,0.252985 -0.13797,0.350366 -0.0924,0.0946 -0.20745,0.141993 -0.34469,0.14211 l -3.0794,0.0026 c -0.14003,1.24e-4 -0.25629,-0.04715 -0.34881,-0.141593 -0.0897,-0.09444 -0.13476,-0.211368 -0.13488,-0.350366 l -0.002,-2.055689 c -1.3e-4,-0.141781 0.0443,-0.258545 0.13384,-0.350366 0.0923,-0.0946 0.20876,-0.141993 0.34881,-0.14211 z m -4.37389,0.0036 0.003,3.040125 -1.70997,0.0016 -1.62006,-2.325439 c -0.0589,-0.08613 -0.1036,-0.129212 -0.13436,-0.129191 h -0.11317 c -0.07,5.8e-5 -0.10549,0.04166 -0.10542,0.125056 l 0.002,2.331124 -0.84439,0.001 -0.003,-3.040125 1.69758,-0.0016 1.63194,2.32544 c 0.0617,0.08613 0.11353,0.129228 0.15554,0.129191 h 0.0925 c 0.07,-5.9e-5 0.10499,-0.04166 0.10491,-0.125057 l -0.002,-2.331124 z m -5.14646,0.0047 0.003,3.035474 -0.8232,0.001 -0.002,-2.326989 c -8e-5,-0.08618 -0.0354,-0.12925 -0.10542,-0.129192 h -0.10904 c -0.0392,3.2e-5 -0.0854,0.04483 -0.13849,0.133842 l -1.35961,2.257227 c -0.0224,0.04727 -0.0614,0.07074 -0.1173,0.0708 l -0.54209,5.16e-4 c -0.0588,5.5e-5 -0.0982,-0.02354 -0.11782,-0.0708 l -1.37149,-2.254643 c -0.0533,-0.08892 -0.0998,-0.133364 -0.13901,-0.133325 h -0.10904 c -0.07,5.8e-5 -0.10497,0.04301 -0.1049,0.129191 l 0.002,2.32699 -0.87385,10e-4 -0.003,-3.03599 1.61747,-0.0016 1.18649,1.829346 c 0.0365,0.07781 0.0968,0.116864 0.18087,0.116789 0.0868,-7.5e-5 0.14814,-0.03944 0.18448,-0.117306 l 1.17047,-1.831412 z m 76.8196,0.0078 -1.32653,1.318782 c -0.0588,0.05845 -0.0879,0.114108 -0.0879,0.166915 4e-5,0.04727 0.0294,0.101164 0.0884,0.162264 0.3084,0.325 0.75825,0.788887 1.34979,1.391646 l -1.10071,0.001 -0.79892,-0.945679 c -0.0309,-0.03608 -0.0617,-0.07237 -0.0925,-0.10852 -0.0448,-0.03892 -0.1079,-0.058 -0.18914,-0.05788 -0.0868,7.5e-5 -0.15395,0.01942 -0.20153,0.05839 -0.0112,0.0084 -0.0436,0.04456 -0.0966,0.108521 l -0.8015,0.947229 -1.10071,10e-4 c 0.0364,-0.03337 0.4853,-0.497794 1.34721,-1.393713 0.0588,-0.06118 0.0879,-0.115494 0.0879,-0.162781 -6e-5,-0.0528 -0.0295,-0.108568 -0.0884,-0.166915 -0.0365,-0.03609 -0.47916,-0.474563 -1.3286,-1.316198 l 1.09657,-0.0016 0.83251,0.954464 c 0.0729,0.08334 0.1471,0.125121 0.22272,0.125057 h 0.0377 c 0.0756,-6.4e-5 0.14998,-0.04211 0.22272,-0.125574 l 0.83096,-0.955497 z m 39.2865,0.0026 c 0.277,-0.0013 1.02577,0.767912 1.02577,0.767912 l -0.95705,-0.05581 c 0,0 5.6e-4,0.757173 -0.01,1.503267 -0.0107,0.746112 -0.3773,0.972909 -1.20872,0.984953 -0.69552,0.01006 -1.08514,-0.37902 -1.07331,-0.938961 0.0113,-0.53888 0.42073,-0.923075 0.92242,-1.010274 0.52242,-0.09089 0.84698,0.337447 0.84698,0.337447 l 0.01,-1.328084 c 0,0 0.16686,-0.259168 0.44391,-0.26045 z m -47.45034,0.0016 c 0.07,-5.9e-5 0.11469,0.0349 0.13436,0.104386 l 0.64492,2.263945 c 0.0225,0.0806 0.0842,0.120491 0.185,0.120406 0.0476,-4.4e-5 0.0812,-0.0054 0.10077,-0.01654 0.0224,-0.01387 0.0434,-0.05008 0.0631,-0.10852 l 0.82527,-2.356962 0.92863,-0.001 -0.97255,2.382284 c -0.0475,0.130703 -0.1256,0.323958 -0.23462,0.579809 -0.0224,0.04728 -0.0573,0.07072 -0.1049,0.0708 l -1.19321,10e-4 c -0.056,4.9e-5 -0.0914,-0.02357 -0.10542,-0.0708 l -0.54363,-1.901176 c -0.0225,-0.0806 -0.0797,-0.120487 -0.17209,-0.120406 -0.10363,9.1e-5 -0.1668,0.04029 -0.18913,0.120923 l -0.53589,1.901692 c -0.0112,0.04731 -0.0448,0.07126 -0.10077,0.07131 l -1.1932,0.001 c -0.0505,4.3e-5 -0.0871,-0.02356 -0.10956,-0.0708 -0.0506,-0.127839 -0.12769,-0.321354 -0.23151,-0.57981 l -0.96428,-2.380216 0.91157,-5.17e-4 0.82579,2.355412 c 0.0281,0.0806 0.0871,0.121003 0.17673,0.120922 0.0616,-4.7e-5 0.10182,-0.0046 0.12144,-0.01292 0.0196,-0.01115 0.038,-0.04549 0.0548,-0.103869 l 0.64079,-2.264978 c 0.0195,-0.06952 0.0657,-0.104322 0.13849,-0.104387 z m -4.48035,0.0031 -1.63607,2.970362 c -0.0252,0.04727 -0.0628,0.07073 -0.11317,0.0708 l -1.19735,10e-4 c -0.0504,4.2e-5 -0.0898,-0.02355 -0.11782,-0.0708 -0.0252,-0.03893 -0.57099,-1.028266 -1.63711,-2.967777 l 0.92449,-5.17e-4 c 0.0113,0.0333 0.41816,0.822237 1.2206,2.367297 0.0449,0.08892 0.0869,0.133364 0.12609,0.133325 h 0.17208 c 0.0364,-3.2e-5 0.0786,-0.04433 0.1261,-0.133325 l 1.20767,-2.369881 z m -80.5248,0.02946 0.003,2.251542 c 8e-5,0.08618 0.0211,0.152765 0.0631,0.199988 0.0421,0.04444 0.11045,0.06675 0.20567,0.06666 l 2.10065,-0.0016 5.2e-4,0.520899 -3.24787,0.0031 -0.003,-3.040124 z m -1.66863,5.17e-4 -1.48208,1.269173 c -0.0952,0.08071 -0.14269,0.155809 -0.14262,0.225309 6e-5,0.06949 0.0537,0.145617 0.16019,0.228927 l 1.6862,1.317232 -1.28984,5.17e-4 -1.37459,-1.195793 c -0.0785,-0.06667 -0.17107,-0.09985 -0.27751,-0.09974 -0.21004,1.22e-4 -0.31489,0.101898 -0.3147,0.30489 l 5.1e-4,0.992188 -0.87385,10e-4 -0.003,-3.040124 0.87385,-0.001 0.001,0.917774 c 1.4e-4,0.202941 0.0953,0.304023 0.28577,0.303857 0.098,-7.9e-5 0.16379,-0.0027 0.1974,-0.0083 0.0616,-0.01391 0.12205,-0.046 0.18087,-0.09612 l 1.29708,-1.118795 z m 112.4195,0 c 0.0392,-3.2e-5 0.0727,0.01539 0.10077,0.04599 0.0309,0.02775 0.0465,0.06081 0.0465,0.09973 l -5.1e-4,0.396358 c 4e-5,0.04727 -0.0219,0.08617 -0.0667,0.116789 l -2.22571,1.565796 c -0.0392,0.02783 -0.0585,0.0681 -0.0584,0.120923 3e-5,0.04173 0.0151,0.07748 0.046,0.108004 0.0309,0.02775 0.0676,0.04188 0.10955,0.04186 l 2.19728,-0.0026 5.2e-4,0.54622 -3.70572,0.0036 c -0.042,3.8e-5 -0.0769,-0.0141 -0.1049,-0.04186 -0.0281,-0.03054 -0.0418,-0.06545 -0.0419,-0.104386 v -0.391708 c -4e-5,-0.04727 0.0206,-0.08618 0.0625,-0.116788 l 2.22571,-1.565796 c 0.0392,-0.02783 0.0585,-0.0681 0.0584,-0.120923 -4e-5,-0.04173 -0.0156,-0.07665 -0.0465,-0.104387 -0.0281,-0.03054 -0.0629,-0.04549 -0.1049,-0.04547 l -2.19728,0.0021 -5.2e-4,-0.550354 z m -4.18889,0.0031 c -0.0112,0.02504 -0.25907,0.308613 -0.74311,0.851111 -0.26862,0.303258 -0.53835,0.605418 -0.80977,0.905888 -0.10632,0.125191 -0.1598,0.252778 -0.15968,0.383439 l 0.001,0.90072 -0.84491,10e-4 -5.1e-4,-0.908989 c -9e-5,-0.10008 -0.008,-0.172577 -0.0253,-0.217041 -0.0168,-0.04724 -0.0476,-0.09436 -0.0925,-0.141593 l -1.63607,-1.766817 1.0883,-0.001 0.86197,1.079004 c 0.0673,0.08335 0.13883,0.125128 0.21445,0.125057 0.10364,-8.5e-5 0.18918,-0.0416 0.25632,-0.125057 l 0.84336,-1.085205 z m -113.0577,0.0016 0.003,2.548164 c 1.2e-4,0.136221 -0.0461,0.252986 -0.1385,0.350367 -0.0923,0.0946 -0.20691,0.141999 -0.34416,0.14211 l -2.56263,0.0021 c -0.14005,1.17e-4 -0.2563,-0.04715 -0.34882,-0.141594 -0.0897,-0.09444 -0.13476,-0.210848 -0.13488,-0.349849 l -5.1e-4,-0.583944 0.84026,-5.16e-4 v 0.250113 c 1.4e-4,0.202935 0.10563,0.304033 0.31574,0.303858 l 1.17615,-5.17e-4 c 0.0952,-7.9e-5 0.17223,-0.02754 0.231,-0.0832 0.0588,-0.05565 0.0879,-0.129434 0.0879,-0.221175 l -0.002,-2.214335 z m 133.65902,0.03617 -0.007,0.692981 -2.5337,0.0052 0.0103,0.530717 2.31872,-0.0052 5.2e-4,0.536918 -2.38229,0.04237 0.002,0.7059 2.58692,5.17e-4 0.006,0.659908 -3.36362,-0.0047 -0.014,-3.146578 z m -85.13744,0.0088 c 0.13724,-1.18e-4 0.25216,0.04851 0.34468,0.145728 0.0953,0.09444 0.14302,0.210011 0.14315,0.346232 l 0.002,2.097546 0.23099,-5.17e-4 0.001,0.63407 c -0.31091,-0.0021 -0.62361,-0.06057 -0.93741,-0.174666 l -3.26853,0.0031 c -0.14285,1.23e-4 -0.25912,-0.04579 -0.34882,-0.137459 -0.0897,-0.09445 -0.13474,-0.212726 -0.13487,-0.3545 l -0.002,-2.063957 c -1.3e-4,-0.139001 0.0443,-0.255772 0.13384,-0.350366 0.0896,-0.09459 0.20597,-0.141987 0.34882,-0.14211 z m 4.82762,0 c 0.14003,-1.24e-4 0.2563,0.04664 0.34881,0.141077 0.0925,0.09445 0.13888,0.211372 0.13901,0.350366 l 0.001,0.471289 c 8e-5,0.0834 -0.0645,0.180665 -0.19327,0.291972 -0.12874,0.108533 -0.19282,0.200368 -0.19275,0.275435 5e-5,0.0528 0.0348,0.111281 0.1049,0.175183 0.10933,0.09998 0.17417,0.160711 0.19379,0.182935 0.0701,0.0889 0.10481,0.189039 0.1049,0.30024 v 0.851111 l -0.88625,5.17e-4 -5.1e-4,-0.933794 c -9e-5,-0.09174 -0.0295,-0.164268 -0.0884,-0.217041 -0.0589,-0.05555 -0.13497,-0.08329 -0.22738,-0.0832 l -1.8526,0.0021 c -0.0896,7.4e-5 -0.13444,0.04572 -0.13436,0.13746 l 0.001,1.09709 -0.87385,5.17e-4 -0.003,-3.040124 z m -9.67177,0.0088 c 0.14285,-1.23e-4 0.25911,0.04715 0.34882,0.141593 0.0925,0.09444 0.13888,0.212203 0.13901,0.353984 l 5.2e-4,0.825273 c 1.3e-4,0.141785 -0.0461,0.259062 -0.1385,0.350883 -0.0895,0.09181 -0.20545,0.137336 -0.3483,0.137459 l -2.54196,0.0026 c -0.0896,8.1e-5 -0.13444,0.04488 -0.13436,0.133842 l 0.001,1.096574 -0.87799,5.16e-4 -0.003,-3.039607 z m 93.14057,0.07131 -1.79575,2.969845 -0.72709,0.0052 1.75855,-2.971395 z m -151.27707,0.05013 0.003,3.040124 -0.8692,5.17e-4 -0.003,-3.039608 z m -1.51153,0.0026 0.002,3.039608 -0.8785,5.17e-4 -0.001,-1.075903 c -6e-5,-0.06113 -0.0211,-0.114178 -0.063,-0.158647 -0.042,-0.04444 -0.0965,-0.06675 -0.16381,-0.06666 l -2.0128,0.0026 c -0.0616,5.3e-5 -0.11487,0.02219 -0.15968,0.06666 -0.042,0.04176 -0.0626,0.09337 -0.0625,0.154512 l 0.001,1.080038 -0.87798,5.17e-4 -0.003,-3.039608 0.8785,-10e-4 10e-4,1.009241 c 5e-5,0.0556 0.0215,0.10542 0.0636,0.149862 0.0421,0.04171 0.0979,0.06261 0.16795,0.06253 l 2.01228,-0.0016 c 0.0616,-5.3e-5 0.11354,-0.02218 0.15554,-0.06666 0.042,-0.04729 0.0632,-0.101621 0.063,-0.162781 l -5.2e-4,-0.992704 z m -5.39968,0.0047 c 0.32771,-4.84e-4 0.48892,0.207555 0.4837,0.624768 l 5.1e-4,0.146245 -0.86558,5.16e-4 c -6e-5,-0.06393 -0.0228,-0.118337 -0.0677,-0.16278 -0.0448,-0.04445 -0.098,-0.06619 -0.15968,-0.06615 0.0252,-2.1e-5 -0.0643,-1.7e-4 -0.26872,0 -1.10637,0.0011 -1.71977,0.0013 -1.8402,10e-4 -0.0952,8e-5 -0.17222,0.02806 -0.23099,0.08372 -0.0588,0.05285 -0.0879,0.126628 -0.0878,0.221175 l 0.002,1.346688 c 1.4e-4,0.202947 0.10646,0.304555 0.31937,0.304374 l 2.1425,-0.0021 c 0.14285,-1.23e-4 0.21416,-0.119546 0.21394,-0.358634 -2e-5,-0.0306 -0.001,-0.06549 -0.004,-0.104387 -0.003,-0.04174 -0.004,-0.0666 -0.004,-0.07493 -4e-5,-0.04173 -0.0336,-0.06255 -0.10077,-0.06253 l -1.64279,0.0021 -5.2e-4,-0.479557 2.59674,-0.0026 -5.1e-4,1.129647 c 1.2e-4,0.141781 -0.0456,0.2599 -0.13798,0.3545 -0.0896,0.09182 -0.20464,0.137859 -0.34468,0.137976 l -3.42822,0.0031 c -0.14005,1.17e-4 -0.2563,-0.0458 -0.34881,-0.137459 -0.0897,-0.09445 -0.13475,-0.212727 -0.13488,-0.354501 l -0.002,-2.055688 c -1.3e-4,-0.141781 0.0443,-0.258547 0.13384,-0.350366 0.0923,-0.0946 0.20877,-0.141995 0.34882,-0.142111 z m -14.015677,0.0801 5.17e-4,0.517281 -2.445329,0.0021 c -0.109236,9.7e-5 -0.18357,0.03213 -0.222726,0.09612 -0.03077,0.05012 -0.04609,0.130699 -0.04599,0.241846 1.26e-4,0.139001 0.01166,0.23046 0.03411,0.274918 0.03368,0.08059 0.111888,0.12103 0.235128,0.120923 l 2.235005,-0.0021 5.17e-4,0.51263 -2.235006,0.0021 c -0.106433,9.1e-5 -0.178919,0.03219 -0.218074,0.09612 -0.03077,0.04732 -0.04609,0.125189 -0.04599,0.233577 l 5.17e-4,0.946712 -0.882117,5.17e-4 -0.0026,-3.039608 z m -4.205945,0.0041 5.17e-4,0.516764 -2.444812,0.0021 c -0.112037,9.6e-5 -0.187707,0.0335 -0.22686,0.100253 -0.02796,0.05006 -0.04197,0.133353 -0.04186,0.250113 1.18e-4,0.130661 0.01299,0.220767 0.03824,0.270785 0.03928,0.07503 0.116156,0.112757 0.230994,0.112655 l 2.235005,-0.0021 5.17e-4,0.51263 -2.235006,0.0021 c -0.112037,9.6e-5 -0.187707,0.0335 -0.226859,0.100252 -0.02796,0.04726 -0.04196,0.129717 -0.04186,0.246497 1.27e-4,0.141781 0.01165,0.237296 0.03411,0.287321 0.03649,0.08059 0.114689,0.12103 0.235128,0.120922 l 2.445329,-0.0016 5.17e-4,0.520899 -3.592546,0.0031 -0.0026,-3.039608 z m -4.713924,0.0036 c 0.137245,-1.17e-4 0.248168,0.04527 0.332279,0.136943 0.08411,0.08888 0.125965,0.203097 0.126091,0.342098 l 0.0021,2.055688 c 1.11e-4,0.122321 -0.04031,0.237742 -0.12144,0.346232 -0.07833,0.105703 -0.173734,0.158551 -0.28577,0.158647 l -3.65094,0.0031 -0.0026,-3.040125 z m -34.317285,0.05581 c 0.146291,-1.27e-4 0.268804,0.05023 0.367419,0.150895 0.09861,0.100663 0.148178,0.225453 0.148312,0.373621 l 0.0021,2.19108 c 1.31e-4,0.1452 -0.04937,0.269816 -0.147795,0.373621 -0.09843,0.100825 -0.22061,0.151285 -0.366903,0.151412 l -3.282487,0.0031 c -0.149276,1.33e-4 -0.273456,-0.04972 -0.37207,-0.150378 -0.09563,-0.100674 -0.143527,-0.225454 -0.14366,-0.373621 l -0.0021,-2.19108 c -1.37e-4,-0.151121 0.04769,-0.275749 0.143143,-0.373621 0.09843,-0.100839 0.222277,-0.151286 0.371554,-0.151412 z m -5.020366,0.0052 c 0.349311,-4.28e-4 0.521302,0.22149 0.515731,0.66611 V 32.5422 l -0.922424,5.16e-4 c -6.2e-5,-0.06816 -0.02402,-0.125745 -0.07183,-0.173116 -0.04782,-0.04732 -0.104338,-0.07083 -0.170016,-0.0708 0.02687,-2.3e-5 -0.06886,-1.88e-4 -0.286804,0 -1.179291,9.43e-4 -1.83326,0.0017 -1.961637,0.0021 -0.101509,9e-5 -0.183337,0.02953 -0.24598,0.08888 -0.06265,0.05637 -0.09415,0.134911 -0.09405,0.235645 l 0.0016,1.436088 c 1.78e-4,0.216321 0.113628,0.324202 0.340548,0.324011 l 2.284098,-0.0021 c 0.152263,-1.25e-4 0.228124,-0.127559 0.227893,-0.382406 -2.9e-5,-0.0326 -0.0016,-0.06963 -0.0047,-0.111104 -0.003,-0.04448 -0.0041,-0.07123 -0.0041,-0.0801 -4e-5,-0.04447 -0.03583,-0.06674 -0.107487,-0.06666 l -1.751314,0.0015 -5.17e-4,-0.51108 2.76779,-0.0026 10e-4,1.204577 c 1.37e-4,0.151127 -0.04936,0.27744 -0.147794,0.378272 -0.09545,0.09787 -0.217625,0.146635 -0.366903,0.146761 l -3.654041,0.0031 c -0.149275,1.26e-4 -0.273458,-0.04854 -0.37207,-0.146244 -0.09563,-0.100668 -0.143524,-0.226629 -0.14366,-0.377755 l -0.0021,-2.19108 c -1.37e-4,-0.151127 0.04769,-0.275754 0.143143,-0.373621 0.09843,-0.100838 0.222276,-0.151285 0.371554,-0.151412 z m -4.683951,0.0036 -1.286744,3.241662 -0.788582,5.17e-4 1.291394,-3.241662 z m -3.148645,0.0031 c 0.14629,-1.28e-4 0.268804,0.05023 0.367419,0.150896 0.09861,0.100662 0.148178,0.224937 0.148311,0.373103 l 0.0021,2.191081 c 1.32e-4,0.1452 -0.04936,0.269816 -0.147794,0.373621 -0.09843,0.100825 -0.220611,0.151285 -0.366903,0.151412 l -3.282487,0.0026 c -0.149278,1.33e-4 -0.273456,-0.04972 -0.37207,-0.150378 -0.09563,-0.100675 -0.143527,-0.225454 -0.143661,-0.373621 l -0.0021,-2.19108 c -1.36e-4,-0.15112 0.04769,-0.275749 0.143144,-0.373621 0.09843,-0.100832 0.222276,-0.151279 0.371554,-0.151412 z m 34.075439,0.104387 c 0.137245,-1.17e-4 0.251649,0.04715 0.344165,0.141593 0.09252,0.09444 0.138884,0.210849 0.13901,0.34985 l 5.16e-4,0.279569 -0.882116,5.17e-4 C 68.084911,32.433321 67.97939,32.34877 67.791728,32.34893 l -1.655196,0.0015 c -0.212871,1.15e-4 -0.319028,0.101885 -0.318844,0.304891 l 10e-4,1.39268 c 2.12e-4,0.202941 0.106519,0.304038 0.31936,0.303857 l 1.655713,-0.0016 c 0.08963,-7.4e-5 0.162101,-0.0253 0.218074,-0.07545 0.05877,-0.05012 0.09112,-0.116608 0.09663,-0.199987 l 0.882117,-10e-4 5.17e-4,0.304891 c 1.23e-4,0.136221 -0.04615,0.252991 -0.138493,0.350366 -0.09235,0.0946 -0.20692,0.141993 -0.344165,0.142111 l -3.079916,0.0026 c -0.140044,1.23e-4 -0.256302,-0.04715 -0.348815,-0.141593 -0.08972,-0.09445 -0.134234,-0.211365 -0.134359,-0.350366 l -0.0021,-2.055689 c -1.28e-4,-0.141779 0.04481,-0.258551 0.134358,-0.350366 0.09234,-0.09459 0.208253,-0.141986 0.3483,-0.14211 z m -4.911845,0.0031 c 0.137245,-1.17e-4 0.246837,0.04579 0.328145,0.13746 0.08131,0.08889 0.121831,0.20258 0.121957,0.341581 l 5.17e-4,0.429431 c 7.5e-5,0.0834 -0.03897,0.172583 -0.117306,0.267167 -0.07834,0.09459 -0.11789,0.179705 -0.117822,0.254765 4.5e-5,0.05007 0.03401,0.106671 0.101286,0.170532 0.103724,0.09999 0.164039,0.162582 0.180867,0.187586 0.0645,0.08613 0.09654,0.184905 0.09663,0.296106 l 5.17e-4,0.450101 c 1.1e-4,0.122314 -0.04164,0.237738 -0.125574,0.346232 -0.08393,0.10571 -0.182002,0.158551 -0.294039,0.158647 l -3.772896,0.0036 -0.0026,-3.040124 z m -5.722131,0.0057 1.678967,3.038574 -0.936894,5.17e-4 c -0.08699,-0.180626 -0.170824,-0.342817 -0.252181,-0.487309 -0.03647,-0.06389 -0.112537,-0.0957 -0.227376,-0.0956 l -1.995227,0.0015 c -0.117639,9.5e-5 -0.191973,0.03213 -0.222725,0.09612 -0.02237,0.03614 -0.10761,0.19908 -0.255799,0.488342 l -0.936893,5.17e-4 1.665014,-3.041675 z m 99.6859,0.0098 -1.65519,0.0016 c -0.21287,1.15e-4 -0.31902,0.101883 -0.31885,0.304891 l 0.001,1.392679 c 1.4e-4,0.202946 0.10697,0.304556 0.31988,0.304375 l 1.65519,-0.0021 c 0.0952,-8e-5 0.17223,-0.02806 0.231,-0.08372 0.0588,-0.05565 0.0879,-0.128913 0.0879,-0.220659 l -0.001,-1.393196 c -1.4e-4,-0.202941 -0.10697,-0.30404 -0.31988,-0.303858 z m 21.05918,0.09767 v 5.16e-4 5.17e-4 l -1.91151,0.0093 c -0.0896,8.1e-5 -0.13443,0.04301 -0.13436,0.129191 l 10e-4,0.517281 c 8e-5,0.08896 0.0447,0.133399 0.13436,0.133325 l 1.91151,-0.0026 c 0.17366,-1.5e-4 0.2606,-0.08383 0.26045,-0.250631 l -5.2e-4,-0.286804 c -1.5e-4,-0.166801 -0.0873,-0.250264 -0.26097,-0.250114 z m -9.66297,0.0088 v 5.16e-4 l -1.91151,0.0057 c -0.0896,7.5e-5 -0.13444,0.04436 -0.13436,0.133325 l 5.2e-4,0.517281 c 7e-5,0.08896 0.0452,0.133399 0.13487,0.133325 l 1.91151,-0.0057 c 0.17366,-1.43e-4 0.26009,-0.08383 0.25993,-0.250631 V 32.20682 c -1.5e-4,-0.166801 -0.0873,-0.250263 -0.26096,-0.250114 z m 4.76457,0.02119 -2.06706,0.0021 c -0.0924,8e-5 -0.16943,0.02888 -0.231,0.08733 -0.0588,0.05565 -0.0879,0.129429 -0.0878,0.221175 l 0.002,1.347205 c 1.4e-4,0.205721 0.10696,0.308173 0.31988,0.307992 l 1.83141,-10e-4 c -0.12328,-0.04165 -0.19021,-0.13321 -0.20154,-0.274919 l -5.1e-4,-0.09612 0.75551,-10e-4 -5.2e-4,-1.28416 c -8e-5,-0.09452 -0.0295,-0.169757 -0.0884,-0.225309 -0.0589,-0.05555 -0.13631,-0.08329 -0.23151,-0.0832 z m -92.780905,0.187069 -2.075842,0.0015 0.0021,2.010213 2.07946,-0.0015 c 0.170856,-1.43e-4 0.256465,-0.08383 0.256315,-0.250631 l -0.0016,-1.513602 c -1.48e-4,-0.164021 -0.08679,-0.24613 -0.26045,-0.24598 z m -34.414953,0.102319 v 5.17e-4 l -1.76475,0.0016 c -0.226902,7.8e-5 -0.340227,0.108611 -0.340031,0.325045 l 0.0016,1.484147 c 1.78e-4,0.216314 0.113628,0.324719 0.340548,0.324528 l 1.76475,-0.0015 c 0.101508,-8.3e-5 0.183336,-0.02959 0.24598,-0.08888 0.06264,-0.0593 0.09414,-0.137837 0.09405,-0.235644 l -0.0016,-1.484664 c -1.78e-4,-0.216634 -0.113631,-0.325236 -0.340547,-0.325045 z m -12.852963,0.01137 -1.764233,0.0016 c -0.226902,7.8e-5 -0.340226,0.108611 -0.340031,0.325045 l 10e-4,1.484664 c 1.78e-4,0.216315 0.11363,0.324202 0.340547,0.324011 l 1.764751,-0.0015 c 0.101507,-9e-5 0.183336,-0.02953 0.245979,-0.08888 0.06264,-0.0593 0.09414,-0.137843 0.09405,-0.235644 l -0.0016,-1.484664 c -1.78e-4,-0.216314 -0.113628,-0.324719 -0.340548,-0.324528 z m 23.58099,0.03772 -0.235644,5.16e-4 c -0.03921,3.8e-5 -0.08084,0.04433 -0.125574,0.133326 l -0.541052,1.088822 c -0.02796,0.05006 -0.04189,0.09034 -0.04186,0.120923 7e-5,0.07784 0.05191,0.116874 0.155546,0.116789 l 1.352889,-0.0016 c 0.103385,-9.1e-5 0.154848,-0.03744 0.155029,-0.112137 -1.63e-4,-0.03054 -0.01261,-0.0712 -0.03772,-0.120923 l -0.555521,-1.09244 c -0.04489,-0.08892 -0.08688,-0.133356 -0.126091,-0.133325 z m 5.69681,0.02015 -1.940967,0.0057 c -0.08963,7.5e-5 -0.134439,0.04488 -0.134359,0.133842 l 5.17e-4,0.483691 c 8.1e-5,0.08896 0.04473,0.133399 0.134359,0.133325 l 1.936833,-0.0021 c 0.173654,-1.5e-4 0.260599,-0.08331 0.260449,-0.250114 v -0.254248 c -1.51e-4,-0.1668 -0.08598,-0.250263 -0.256832,-0.250113 z m -0.06201,1.245918 v 5.17e-4 5.17e-4 l -1.877921,10e-4 c -0.08946,8.1e-5 -0.134267,0.04608 -0.134359,0.13746 v 5.16e-4 l 5.17e-4,0.496094 c 8e-5,0.08896 0.04525,0.133399 0.134875,0.133325 l 1.940967,-0.0031 c 0.173657,-1.43e-4 0.260083,-0.08331 0.259932,-0.250114 v -0.157613 l -0.0041,-0.05839 c -0.01418,-0.200142 -0.12101,-0.300411 -0.319877,-0.30024 z m -31.615124,3.083016 15.953031,0.01395 c 0.664799,5.79e-4 1.199472,0.536161 1.198893,1.20096 l -0.01395,15.953032 c -5.79e-4,0.664799 -0.536161,1.199472 -1.200961,1.198893 l -15.953031,-0.01395 c -0.664799,-5.79e-4 -1.199472,-0.536161 -1.198893,-1.20096 l 0.01395,-15.953032 c 5.79e-4,-0.664799 0.536162,-1.199472 1.200961,-1.198893 z m 22.225,0.01964 15.953031,0.01344 c 0.664799,5.79e-4 1.199472,0.536678 1.198893,1.201477 l -0.01395,15.952515 c -5.79e-4,0.664799 -0.536161,1.199472 -1.200961,1.198893 l -15.953031,-0.01344 c -0.664799,-5.79e-4 -1.199472,-0.536678 -1.198893,-1.201477 l 0.01395,-15.952514 c 5.79e-4,-0.6648 0.536162,-1.199473 1.200961,-1.198894 z m 22.225,0.01912 15.953031,0.01395 c 0.664799,5.79e-4 1.199472,0.536161 1.198893,1.20096 l -0.01395,15.953032 c -5.79e-4,0.664799 -0.536161,1.199472 -1.200961,1.198893 l -15.953031,-0.01395 c -0.664799,-5.79e-4 -1.199472,-0.536161 -1.198893,-1.20096 l 0.01395,-15.953031 c 5.79e-4,-0.664799 0.536162,-1.199473 1.200961,-1.198894 z m 22.225,0.01912 15.953025,0.01395 c 0.6648,5.8e-4 1.19948,0.536162 1.1989,1.200961 l -0.014,15.953031 c -5.7e-4,0.664799 -0.53616,1.199472 -1.20096,1.198893 l -15.953025,-0.01343 c -0.664799,-5.8e-4 -1.199472,-0.536678 -1.198893,-1.201478 l 0.01395,-15.952514 c 5.79e-4,-0.664799 0.536162,-1.199989 1.200961,-1.19941 z m 22.367625,0.01964 15.95303,0.01395 c 0.6648,5.79e-4 1.19947,0.536161 1.19889,1.20096 l -0.0139,15.953031 c -5.8e-4,0.664799 -0.53616,1.199473 -1.20096,1.198893 l -15.95303,-0.01395 c -0.6648,-5.79e-4 -1.19947,-0.536161 -1.19889,-1.20096 l 0.014,-15.953032 c 5.8e-4,-0.664799 0.53616,-1.199472 1.20096,-1.198893 z m 22.225,0.01964 15.95303,0.01344 c 0.6648,5.79e-4 1.19947,0.536678 1.19889,1.201477 l -0.0139,15.952515 c -5.8e-4,0.664799 -0.53616,1.199989 -1.20096,1.199409 l -15.95303,-0.01395 c -0.6648,-5.79e-4 -1.19947,-0.536161 -1.19889,-1.20096 l 0.0139,-15.953032 c 5.8e-4,-0.664799 0.53616,-1.199472 1.20096,-1.198893 z m 22.225,0.01912 15.95303,0.01395 c 0.6648,5.79e-4 1.19947,0.536161 1.19889,1.20096 l -0.0139,15.953032 c -5.8e-4,0.664799 -0.53616,1.199472 -1.20096,1.198893 l -15.95303,-0.01395 c -0.6648,-5.79e-4 -1.19947,-0.536161 -1.19889,-1.20096 l 0.0139,-15.953032 c 5.8e-4,-0.664799 0.53616,-1.199472 1.20096,-1.198893 z m 22.225,0.01964 15.95303,0.01344 c 0.6648,5.79e-4 1.19947,0.536678 1.19889,1.201477 l -0.014,15.952515 c -5.8e-4,0.664799 -0.53616,1.199989 -1.20096,1.19941 L 186.972,55.154542 c -0.6648,-5.79e-4 -1.19947,-0.536678 -1.19889,-1.201477 l 0.014,-15.952515 c 5.8e-4,-0.664799 0.53616,-1.199472 1.20096,-1.198893 z m 22.225,0.01912 15.95303,0.01395 c 0.6648,5.79e-4 1.19947,0.536161 1.19889,1.20096 l -0.0139,15.953032 c -5.8e-4,0.664799 -0.53616,1.199472 -1.20096,1.198893 l -15.95303,-0.01395 c -0.6648,-5.79e-4 -1.19947,-0.536161 -1.19889,-1.20096 l 0.0139,-15.953031 c 5.8e-4,-0.664799 0.53616,-1.199473 1.20096,-1.198893 z m 22.225,0.01912 15.95303,0.01395 c 0.6648,5.8e-4 1.19947,0.536678 1.19889,1.201478 l -0.0139,15.952514 c -5.8e-4,0.664799 -0.53616,1.199472 -1.20096,1.198893 l -15.95303,-0.01344 c -0.6648,-5.8e-4 -1.19947,-0.536678 -1.19889,-1.201478 l 0.0139,-15.952514 c 5.8e-4,-0.664799 0.53616,-1.199989 1.20096,-1.19941 z m 22.225,0.01964 15.95303,0.01395 c 0.6648,5.8e-4 1.19947,0.536162 1.19889,1.200961 l -0.014,15.953031 c -5.8e-4,0.664799 -0.53616,1.199473 -1.20096,1.198893 L 253.647,55.212415 c -0.6648,-5.79e-4 -1.19947,-0.536161 -1.19889,-1.20096 l 0.0139,-15.953032 c 5.8e-4,-0.664799 0.53616,-1.199472 1.20096,-1.198893 z m 5.94279,19.461344 c 0.102,0.0021 0.20029,0.05593 0.25528,0.150379 l 1.2237,2.099096 c 0.0839,0.143868 0.0349,0.326571 -0.11007,0.409794 l -0.44442,0.255282 c -0.14494,0.08322 -0.32904,0.0343 -0.41289,-0.109554 l -1.22319,-2.099097 c -0.0838,-0.143869 -0.0354,-0.327088 0.10956,-0.410311 l 0.44442,-0.254248 c 0.0498,-0.02864 0.10421,-0.0423 0.15761,-0.04134 z m 4.1429,0.10387 c 0.0582,-0.0014 0.11761,0.01346 0.17053,0.04702 l 0.43253,0.273886 c 0.14124,0.08935 0.18202,0.274318 0.092,0.414445 l -1.3131,2.044836 c -0.09,0.140177 -0.27635,0.180844 -0.41755,0.09147 l -0.43253,-0.273885 c -0.14123,-0.08935 -0.18255,-0.274318 -0.0925,-0.414445 l 1.31362,-2.04432 c 0.0563,-0.08762 0.15009,-0.136926 0.24701,-0.139009 z m -86.78385,0.645955 c 0.59292,-0.0064 1.82172,0.06864 2.16524,0.767912 0.45811,0.932379 -0.0749,1.033529 -0.0749,1.033529 l -2.36213,-0.02325 c 0,0 -0.0257,-0.453819 -0.55914,-0.453202 -0.53339,9.17e-4 -4.04995,-0.08121 -5.00434,-0.02119 -0.484,0.03046 -1.09124,0.278848 -1.01441,1.035079 0.0769,0.75625 0.5333,0.553971 0.5333,0.553971 0,0 0.27926,-0.328161 0.71107,-0.303341 0.43181,0.02502 5.89266,0.0708 5.89266,0.0708 0,0 2.08328,-0.203315 2.08411,1.031978 0.001,1.235284 -0.17622,2.016932 -0.17622,2.016932 0,0 -0.15176,1.008069 -2.38693,1.010274 -2.23517,0.002 -8.22947,-0.118856 -8.22947,-0.118856 0,0 -1.29571,0.0012 -1.29656,-1.612305 l 0.0418,-3.244763 c 0,0 0.33346,-1.568186 1.65417,-1.644861 1.3207,-0.07678 7.6972,-0.08527 7.6972,-0.08527 0,0 0.12741,-0.01043 0.32505,-0.01292 z m -117.119982,0.05013 5.22242,0.08423 0.03514,6.331913 -2.848405,-0.02687 -0.09302,-4.093807 c 0,0 -0.297661,-1.030681 -1.246953,-0.764812 -0.385479,0.294841 -2.846854,1.681035 -2.846854,1.681035 L 56.582593,59.03774 Z m 158.234272,0.08113 c 1.80277,0.0052 3.63912,0.08773 4.69893,0.265101 1.04621,0.152842 0.89539,1.153558 0.84543,1.692919 -0.0173,0.730897 -0.39147,0.758666 -0.96893,0.910539 -0.4889,0.128563 -0.19198,0.5478 0.4501,0.658875 0.66111,0.114384 0.50291,0.908799 0.46767,1.67535 -0.0352,0.766559 -0.57861,0.889353 -1.57923,1.142049 -1.27489,0.321954 -8.44105,0.09642 -9.57254,0.07958 -1.13152,-0.01686 -0.86353,-1.354024 -0.88212,-1.995743 -0.0185,-0.64173 0.62777,-0.80328 0.8971,-0.874882 0.26931,-0.07154 0.1977,-0.587866 -0.0537,-0.623218 -0.25147,-0.03544 -0.68399,-0.248961 -0.6842,-1.336353 -9.9e-4,-1.087395 0.79368,-1.233522 1.88464,-1.392163 0.92484,-0.134503 2.69412,-0.20752 4.49689,-0.202055 z m 17.97202,0.07751 c 2.23518,-0.002 8.22948,0.118856 8.22948,0.118856 0,0 1.2957,-0.0011 1.29656,1.612305 l -0.0419,3.244763 c 0,0 -0.33344,1.568185 -1.65416,1.644861 -1.32071,0.07677 -7.69721,0.08527 -7.69721,0.08527 0,0 -0.12741,0.01043 -0.32504,0.01292 l 5.2e-4,5.17e-4 c -0.59293,0.0064 -1.82173,-0.06864 -2.16525,-0.767912 -0.45812,-0.932379 0.0749,-1.033529 0.0749,-1.033529 l 2.36213,0.02325 c 0,0 0.0257,0.453819 0.55914,0.453202 0.53339,-9.17e-4 4.04944,0.08121 5.00383,0.02119 0.48399,-0.03046 1.09175,-0.278839 1.01493,-1.035079 -0.0768,-0.75624 -0.5333,-0.553971 -0.5333,-0.553971 0,0 -0.27925,0.32816 -0.71107,0.303341 -0.43182,-0.02482 -5.89267,-0.0708 -5.89267,-0.0708 0,0 -2.08328,0.203325 -2.08411,-1.031979 -0.001,-1.235284 0.17622,-2.016931 0.17622,-2.016931 0,0 0.15179,-1.008069 2.38693,-1.010274 z m -131.6793,0.03307 c 2.7195,-0.0021 6.29264,0.101286 6.29264,0.101286 0,0 2.11474,0.04093 2.11615,1.609721 9.7e-4,1.568764 -1.23765,1.336352 -1.23765,1.336352 l 0.0434,0.5302 c 0,0 1.30257,0.06231 1.26091,1.228349 -0.0417,1.166004 -0.57938,1.40571 -0.98082,1.527039 -1.19578,0.361409 -8.39432,0.197921 -8.39432,0.197921 0,0 -1.70853,0.128944 -2.4567,-0.527617 -0.85501,-0.720047 -0.59945,-1.441256 -0.59945,-1.441256 l 2.52078,-0.04444 c 0,0 0.15027,0.890101 1.00459,0.846976 0.85432,-0.04319 5.3821,0.03772 5.3821,0.03772 0,0 0.76893,-0.06425 0.72554,-0.806152 -0.0434,-0.741943 -0.74793,-0.698876 -0.98289,-0.698665 -0.23494,2.01e-4 -3.50314,-0.03928 -3.50314,-0.03928 l -0.0222,-1.081071 3.71657,-0.04547 c 0,0 0.64066,0.04179 0.61857,-0.763777 -0.0221,-0.805569 -1.34617,-0.762228 -1.34617,-0.762228 l -3.86591,0.0031 c 0,0 -0.81196,-0.126049 -1.15342,0.192236 -0.34146,0.318286 -0.5333,0.61495 -0.5333,0.61495 l -2.58434,-0.01912 c 0,0 -0.31975,-1.698097 1.21543,-1.908927 0.46748,-0.0642 1.52753,-0.0869 2.76365,-0.08785 z m 24.47345,0.03876 4.29276,0.01499 c 0.3234,0.01754 0.41289,0.356051 0.41289,0.356051 0,0 0.0216,3.279936 0.0217,3.565157 2.5e-4,0.285202 0.28732,0.249597 0.28732,0.249597 0,0 0.68255,-3.61e-4 1.11362,0.01705 0.43105,0.01745 0.35959,0.338283 0.37776,0.676961 0.0183,0.338727 -0.30489,0.374654 -0.30489,0.374654 0,0 -0.80843,0.01754 -1.13172,0 -0.32329,-0.01755 -0.34054,0.338997 -0.34054,0.338997 l -0.0351,0.855762 -2.80242,0.02015 c 0,0 0.0184,-0.285569 0.0176,-0.731222 -4e-4,-0.445672 -0.35967,-0.48059 -0.35967,-0.48059 l -8.0641,0.04237 c 0,0 -0.0189,-1.301251 0.0165,-1.87172 0.0354,-0.570459 0.34003,-0.749308 0.34003,-0.749308 0,0 3.82454,-1.946063 4.57854,-2.303219 0.75402,-0.357136 1.57975,-0.375688 1.57975,-0.375688 z m 16.80931,0.01034 c 0.0153,3.81e-4 0.0238,0.001 0.0238,0.001 l 10.94765,0.116789 v -5.17e-4 c 0.27939,0.02499 0.1783,0.478929 0.17828,0.806669 3.7e-4,0.403322 -0.81235,0.302824 -0.81235,0.302824 0,0 -6.6548,0.0064 -7.51841,-0.01809 -0.86362,-0.02448 -0.83789,0.403674 -0.83767,0.655774 2.3e-4,0.252101 -0.15179,0.731654 0.48317,0.7059 0.61382,-0.0249 0.76171,-0.30334 0.76171,-0.30334 0,0 5.08034,-0.0045 6.55361,0.09508 1.47327,0.09959 1.72806,1.133264 1.72806,1.133264 0,0 0.0268,1.537833 -0.32815,2.294434 -0.3549,0.756611 -1.98024,0.908989 -1.98024,0.908989 0,0 -6.85839,-0.145508 -8.25531,-0.06873 -1.39689,0.0768 -1.80357,-0.855475 -1.80454,-1.258838 -3.6e-4,-0.403362 0.22841,-0.453719 0.22841,-0.453719 l 2.0066,0.0739 c 0,0 0.17776,-0.05108 0.7369,0.326595 0.55914,0.377681 0.66043,0.226343 0.66043,0.226343 l 4.7501,-0.0031 c 0,0 1.2192,0.04926 1.31981,-0.984436 0.10067,-1.033711 -0.86506,-1.209228 -0.86506,-1.209228 0,0 -3.86055,-0.123083 -4.7749,-0.09715 -0.91438,0.02599 -1.3963,0.656808 -1.3963,0.656808 0,0 -1.65139,-0.07412 -2.05776,-0.04858 -0.40638,0.02557 -0.38137,-0.352433 -0.38137,-0.352433 0,0 0.0999,-2.546258 0.0992,-3.05046 -4e-4,-0.441177 0.42738,-0.458453 0.53434,-0.455786 z m 48.97943,0.129707 6.21306,0.05168 c 0,0 0.53333,-0.07582 0.53382,0.466121 6.1e-4,0.542032 0.15134,0.724217 -0.2434,1.152385 -0.39473,0.428167 -4.95318,4.460709 -4.95318,4.460709 -0.20061,0.30884 -0.50712,0.372039 -0.91726,0.325045 l -2.836,0.05219 c 0,0 -0.5748,-0.0171 0.34055,-0.713134 0.91534,-0.696019 4.30723,-3.640088 4.30723,-3.640088 0,0 0.64568,-0.749431 -0.41393,-0.695048 -1.05961,0.05445 -6.80682,0.05943 -6.80682,0.05943 0,0 -0.26958,0.03587 -0.28784,-0.302824 -0.0182,-0.338688 0.0171,-0.891419 0.0171,-0.891419 0,0 -0.1078,-0.284855 0.35916,-0.285254 0.46696,-7.9e-4 4.68756,-0.03979 4.68756,-0.03979 z M 81.5821,57.622839 c 0.49981,3.92e-4 1.075498,0.0026 1.739429,0.0057 5.044412,0.02368 5.548772,-0.03421 6.528801,0.877982 0.980027,0.912162 0.18509,2.777196 -1.535824,2.896464 -1.720917,0.119279 -7.363375,0.405144 -7.363375,0.405144 0,0 -0.777622,0.875833 0.06046,0.917256 1.067313,0.05287 9.020638,-0.03669 9.020638,-0.03669 l 0.06046,1.177706 -12.284521,0.03979 -0.03204,-2.120284 c 0,0 0.325762,-1.17838 1.364258,-1.238168 1.038495,-0.05981 7.65483,-0.389123 7.65483,-0.389123 0,0 0.771186,-0.413298 0.414445,-1.149284 -1.244291,-0.490156 -2.747182,-0.371345 -4.599203,-0.319877 -0.937748,0.0078 -2.032266,-0.200053 -2.254642,0.855762 -0.608894,0.20206 -2.61121,0.208772 -2.61121,0.208772 0,0 -0.223416,-1.280413 0.176733,-1.678967 0.376859,-0.375351 0.162093,-0.454911 3.660758,-0.452169 z m -40.898795,0.07648 v 10e-4 c 5.533353,-0.01491 5.34234,0.52033 5.396053,3.402893 0.05136,2.756017 -0.963803,2.883617 -3.790983,2.876827 -1.793122,-0.0041 -6.661453,-0.0076 -7.649662,-0.05426 -2.329772,-0.109981 -1.996076,-1.850451 -2.020549,-3.167765 -0.03434,-1.848313 0.04511,-2.983334 3.002918,-2.985865 -1.292218,-0.01 6.079171,-0.08057 4.508768,-0.06925 0.190611,-0.0025 0.37496,-0.0032 0.553455,-0.0036 z m 201.030105,0.77463 c -0.10556,5.21e-4 -0.17518,0.01033 -0.17518,0.01033 l -4.21628,0.0036 c 0,0 -1.06695,-0.07539 -1.06609,0.756543 7.6e-4,0.831933 0.50847,0.907604 1.01648,0.906921 0.50799,-5.83e-4 2.38797,0.02325 2.38797,0.02325 l 2.38745,-0.0021 c 0,0 0.7109,-0.07629 0.65939,-0.958598 -0.0387,-0.661737 -0.67705,-0.741571 -0.99374,-0.740007 z m -26.56737,0.03307 c 0,0 -0.61097,0.104529 -0.6103,0.624251 5.1e-4,0.534793 0.21616,0.641722 0.82683,0.641305 l 4.83122,0.102836 c 0,0 0.61079,-0.03599 0.6103,-0.624251 -5.3e-4,-0.588263 -0.21642,-0.641585 -0.79116,-0.658875 -0.57476,-0.01729 -4.86689,-0.08527 -4.86689,-0.08527 z m -85.05631,0.113688 c -0.0498,8.71e-4 -0.10527,0.0098 -0.16588,0.02997 -0.17887,0.05179 -0.78137,0.284758 -1.38234,0.553971 l -3.46491,1.55391 c 0,0 -0.3042,0.659551 0.16278,0.676962 0.46664,0.01741 4.90255,-0.0041 4.90255,-0.0041 0,0 0.43121,0.03534 0.44855,-0.552937 0.0174,-0.588287 -0.0553,-1.854151 -0.0553,-1.854151 0,0 -0.0965,-0.408688 -0.44545,-0.403593 z m -89.986235,0.372587 c -0.0608,4.73e-4 -0.125307,0.0011 -0.188619,0.0016 -0.184346,0.0036 -3.157555,0.03506 -2.546614,0.03927 -1.598174,0.0014 -1.641229,0.638387 -1.62264,1.675866 0.01325,0.739417 -0.166912,1.716423 1.091923,1.778186 0.533956,0.02519 3.164213,0.02832 4.133081,0.03049 1.527596,0.0035 2.075733,-0.06739 2.047937,-1.614372 -0.02908,-1.618018 0.07474,-1.919543 -2.915068,-1.910995 z m 227.548385,0.915707 c 0.16745,-1.43e-4 0.30267,0.133523 0.30282,0.299723 v 0.408244 c 1.5e-4,0.1662 -0.13434,0.300614 -0.30179,0.300757 l -4.19612,0.0031 c -0.16745,1.43e-4 -0.30268,-0.133523 -0.30283,-0.299723 l -5.1e-4,-0.408244 c -1.5e-4,-0.1662 0.13485,-0.300097 0.3023,-0.30024 z m -7.9375,0.0067 c 0.16745,-1.43e-4 0.30216,0.133523 0.30231,0.299723 l 5.1e-4,0.408244 c 1.5e-4,0.1662 -0.13434,0.300097 -0.30179,0.30024 l -4.19664,0.0036 c -0.16745,1.43e-4 -0.30164,-0.133523 -0.30179,-0.299723 l -5.2e-4,-0.408244 c -1.5e-4,-0.1662 0.13434,-0.300098 0.30179,-0.30024 z m -86.55027,0.978235 -2.38745,0.0016 c 0,0 -0.71091,0.07629 -0.6594,0.958598 0.0516,0.882314 1.16893,0.729671 1.16893,0.729671 l 4.21628,-0.0031 c 0,0 1.06695,0.07487 1.06608,-0.757059 -7.5e-4,-0.831944 -0.50848,-0.907605 -1.01647,-0.906922 -0.50799,5.83e-4 -2.38797,-0.02274 -2.38797,-0.02274 z m 41.74474,0.206705 c 0,0 -0.63164,0.105046 -0.63097,0.624768 4.9e-4,0.534793 0.22308,0.64115 0.85472,0.640788 l 4.99815,0.102836 c 0,0 0.63146,-0.03598 0.63097,-0.624251 -5.3e-4,-0.588273 -0.22353,-0.641633 -0.81804,-0.658875 -0.59451,-0.01734 -5.03483,-0.08527 -5.03483,-0.08527 z m 47.81103,0.460954 c 0.10714,-0.003 0.21265,0.05091 0.27027,0.149862 l 1.2237,2.099096 c 0.0839,0.143859 0.0344,0.327088 -0.11059,0.410311 l -0.4439,0.254765 c -0.14495,0.08322 -0.32904,0.03483 -0.4129,-0.109037 l -1.22369,-2.10013 c -0.0839,-0.143859 -0.0349,-0.326054 0.11007,-0.409278 l 0.44441,-0.255281 c 0.0453,-0.02594 0.094,-0.03927 0.14263,-0.04031 z m -2.21692,0.03256 c 0.0582,-0.0014 0.11761,0.01399 0.17053,0.04754 l 0.43254,0.273369 c 0.14123,0.08936 0.18307,0.274308 0.093,0.414445 l -1.31413,2.044836 c -0.09,0.140177 -0.27583,0.181368 -0.41703,0.09198 l -0.43305,-0.273885 c -0.14123,-0.08935 -0.18201,-0.274318 -0.092,-0.414445 l 1.31362,-2.044836 c 0.0563,-0.08763 0.14957,-0.136927 0.24649,-0.13901 z" /><g
         id="g16478"><rect
           style="fill:#f7fd02;fill-opacity:1;stroke:#000000;stroke-width:0;stroke-dasharray:none;stroke-opacity:1"
           id="rect15706"
           width="18.201677"
           height="9.8319197"
           x="30.217907"
           y="20.60898"
           rx="1.5"
           transform="rotate(-0.08114689)" /><rect
           style="fill:#ffb500;fill-opacity:1;stroke:#000000;stroke-width:0;stroke-dasharray:none;stroke-opacity:1"
           id="rect15721"
           width="18.201677"
           height="9.8319197"
           x="52.644588"
           y="20.60898"
           rx="1.5"
           transform="rotate(-0.08114689)" /><rect
           style="fill:#ff4700;fill-opacity:1;stroke:#000000;stroke-width:0;stroke-dasharray:none;stroke-opacity:1"
           id="rect15723"
           width="18.201677"
           height="9.8319197"
           x="74.6679"
           y="20.60898"
           rx="1.5"
           transform="rotate(-0.08114689)" /><rect
           style="fill:#ff0000;fill-opacity:1;stroke:#000000;stroke-width:0;stroke-dasharray:none;stroke-opacity:1"
           id="rect15725"
           width="18.201677"
           height="9.8319197"
           x="97.094574"
           y="20.60898"
           rx="1.5"
           transform="rotate(-0.08114689)" /><rect
           style="fill:#67008a;fill-opacity:1;stroke:#000000;stroke-width:0;stroke-dasharray:none;stroke-opacity:1"
           id="rect15727"
           width="18.201677"
           height="9.8319197"
           x="119.31956"
           y="20.60898"
           rx="1.5"
           transform="rotate(-0.08114689)" /><rect
           style="fill:#460dc8;fill-opacity:1;stroke:#000000;stroke-width:0;stroke-dasharray:none;stroke-opacity:1"
           id="rect15729"
           width="18.201677"
           height="9.8319197"
           x="141.74628"
           y="20.60898"
           rx="1.5"
           transform="rotate(-0.08114689)" /><rect
           style="fill:#001eb0;fill-opacity:1;stroke:#000000;stroke-width:0;stroke-dasharray:none;stroke-opacity:1"
           id="rect15731"
           width="18.201677"
           height="9.8319197"
           x="163.76961"
           y="20.60898"
           rx="1.5"
           transform="rotate(-0.08114689)" /><rect
           style="fill:#005bf2;fill-opacity:1;stroke:#000000;stroke-width:0;stroke-dasharray:none;stroke-opacity:1"
           id="rect15733"
           width="18.201677"
           height="9.8319197"
           x="186.19632"
           y="20.60898"
           rx="1.5"
           transform="rotate(-0.08114689)" /><rect
           style="fill:#00bdff;fill-opacity:1;stroke:#000000;stroke-width:0;stroke-dasharray:none;stroke-opacity:1"
           id="rect15735"
           width="18.201677"
           height="9.8319197"
           x="208.09381"
           y="20.60898"
           rx="1.5"
           transform="rotate(-0.08114689)" /><rect
           style="fill:#00a26f;fill-opacity:1;stroke:#000000;stroke-width:0;stroke-dasharray:none;stroke-opacity:1"
           id="rect15737"
           width="18.201677"
           height="9.8319197"
           x="230.11714"
           y="20.60898"
           rx="1.5"
           transform="rotate(-0.08114689)" /><rect
           style="fill:#81d524;fill-opacity:1;stroke:#000000;stroke-width:0;stroke-dasharray:none;stroke-opacity:1"
           id="rect15739"
           width="18.201677"
           height="9.8319197"
           x="252.54385"
           y="20.60898"
           rx="1.5"
           transform="rotate(-0.08114689)" /></g></g></g></svg>
